<?xml version="1.0" encoding="UTF-8" standalone="no"?><!DOCTYPE svg PUBLIC "-//W3C//DTD SVG 1.1//EN" "http://www.w3.org/Graphics/SVG/1.1/DTD/svg11.dtd"><svg width="100%" height="100%" viewBox="0 0 90 73" version="1.1" xmlns="http://www.w3.org/2000/svg" xmlns:xlink="http://www.w3.org/1999/xlink" xml:space="preserve" xmlns:serif="http://www.serif.com/" style="fill-rule:evenodd;clip-rule:evenodd;stroke-linejoin:round;stroke-miterlimit:2;"><g><path d="M1.125,72.01c-0.271,-0 -0.526,-0.072 -0.766,-0.216c-0.239,-0.144 -0.359,-0.351 -0.359,-0.622l0,-15.849c0,-0.287 0.132,-0.495 0.395,-0.622c0.263,-0.128 0.555,-0.192 0.874,-0.192c0.319,0 0.61,0.064 0.874,0.192c0.263,0.127 0.395,0.335 0.395,0.622l-0,14.436l6.224,0c0.256,0 0.447,0.116 0.575,0.347c0.127,0.232 0.191,0.491 0.191,0.778c0,0.272 -0.064,0.527 -0.191,0.766c-0.128,0.24 -0.319,0.36 -0.575,0.36l-7.637,-0Z" style="fill-rule:nonzero;"/><path d="M12.281,58.411c-0.271,0 -0.466,-0.075 -0.586,-0.227c-0.12,-0.152 -0.18,-0.315 -0.18,-0.491l-0.239,-3.375c-0,-0.224 0.108,-0.395 0.323,-0.515c0.216,-0.12 0.443,-0.18 0.682,-0.18c0.24,0 0.467,0.06 0.683,0.18c0.215,0.12 0.323,0.291 0.323,0.515l-0.239,3.375c-0,0.176 -0.06,0.339 -0.18,0.491c-0.12,0.152 -0.315,0.227 -0.587,0.227Z" style="fill-rule:nonzero;"/><path d="M17.476,72.01c-0.223,-0 -0.462,-0.048 -0.718,-0.144c-0.255,-0.096 -0.463,-0.22 -0.622,-0.371c-0.16,-0.152 -0.24,-0.331 -0.24,-0.539c0,-0.048 0.008,-0.12 0.024,-0.215l4.764,-15.514c0.096,-0.287 0.3,-0.502 0.611,-0.646c0.311,-0.144 0.642,-0.216 0.994,-0.216c0.367,0 0.706,0.072 1.017,0.216c0.311,0.144 0.515,0.359 0.61,0.646l4.741,15.514c0.032,0.095 0.048,0.167 0.048,0.215c-0,0.192 -0.084,0.367 -0.252,0.527c-0.167,0.159 -0.375,0.287 -0.622,0.383c-0.248,0.096 -0.491,0.144 -0.73,0.144c-0.208,-0 -0.388,-0.04 -0.539,-0.12c-0.152,-0.08 -0.259,-0.216 -0.323,-0.407l-0.982,-3.4l-5.937,0l-0.958,3.4c-0.048,0.191 -0.155,0.327 -0.323,0.407c-0.167,0.08 -0.355,0.12 -0.563,0.12Zm2.418,-5.962l4.789,0l-2.394,-8.211l-2.395,8.211Z" style="fill-rule:nonzero;"/><path d="M38.113,72.153c-0.958,0 -1.839,-0.175 -2.645,-0.527c-0.806,-0.351 -1.449,-0.917 -1.928,-1.699c-0.478,-0.782 -0.718,-1.82 -0.718,-3.113l0,-6.966c0,-1.293 0.24,-2.33 0.718,-3.112c0.479,-0.783 1.126,-1.349 1.94,-1.7c0.814,-0.351 1.699,-0.527 2.657,-0.527c1.101,0 2.055,0.188 2.861,0.563c0.806,0.375 1.436,0.885 1.891,1.532c0.455,0.646 0.683,1.392 0.683,2.238c-0,0.543 -0.104,0.898 -0.312,1.066c-0.207,0.167 -0.526,0.251 -0.957,0.251c-0.383,0 -0.687,-0.068 -0.91,-0.203c-0.224,-0.136 -0.343,-0.348 -0.359,-0.635c-0.016,-0.207 -0.056,-0.455 -0.12,-0.742c-0.064,-0.287 -0.187,-0.571 -0.371,-0.85c-0.183,-0.279 -0.459,-0.511 -0.826,-0.694c-0.367,-0.184 -0.87,-0.276 -1.508,-0.276c-0.926,0 -1.636,0.252 -2.131,0.755c-0.495,0.502 -0.742,1.28 -0.742,2.334l0,6.966c0,1.054 0.251,1.832 0.754,2.335c0.503,0.502 1.233,0.754 2.191,0.754c0.606,-0 1.089,-0.092 1.448,-0.276c0.359,-0.183 0.627,-0.415 0.802,-0.694c0.176,-0.279 0.295,-0.574 0.359,-0.886c0.064,-0.311 0.112,-0.594 0.144,-0.849c0.016,-0.304 0.139,-0.519 0.371,-0.647c0.231,-0.128 0.523,-0.191 0.874,-0.191c0.447,-0 0.774,0.087 0.981,0.263c0.208,0.175 0.312,0.527 0.312,1.053c-0,0.862 -0.228,1.632 -0.683,2.311c-0.455,0.678 -1.089,1.209 -1.903,1.592c-0.814,0.383 -1.772,0.574 -2.873,0.574Z" style="fill-rule:nonzero;"/><path d="M53.459,72.153c-0.958,0 -1.84,-0.175 -2.646,-0.527c-0.806,-0.351 -1.448,-0.917 -1.927,-1.699c-0.479,-0.782 -0.718,-1.82 -0.718,-3.113l0,-6.966c0,-1.293 0.239,-2.33 0.718,-3.112c0.479,-0.783 1.125,-1.349 1.939,-1.7c0.814,-0.351 1.7,-0.527 2.658,-0.527c1.101,0 2.055,0.188 2.861,0.563c0.806,0.375 1.436,0.885 1.891,1.532c0.455,0.646 0.682,1.392 0.682,2.238c0,0.543 -0.103,0.898 -0.311,1.066c-0.207,0.167 -0.527,0.251 -0.958,0.251c-0.383,0 -0.686,-0.068 -0.909,-0.203c-0.224,-0.136 -0.343,-0.348 -0.359,-0.635c-0.016,-0.207 -0.056,-0.455 -0.12,-0.742c-0.064,-0.287 -0.188,-0.571 -0.371,-0.85c-0.184,-0.279 -0.459,-0.511 -0.826,-0.694c-0.367,-0.184 -0.87,-0.276 -1.508,-0.276c-0.926,0 -1.636,0.252 -2.131,0.755c-0.495,0.502 -0.742,1.28 -0.742,2.334l-0,6.966c-0,1.054 0.251,1.832 0.754,2.335c0.503,0.502 1.233,0.754 2.19,0.754c0.607,-0 1.09,-0.092 1.449,-0.276c0.359,-0.183 0.626,-0.415 0.802,-0.694c0.175,-0.279 0.295,-0.574 0.359,-0.886c0.064,-0.311 0.112,-0.594 0.144,-0.849c0.016,-0.304 0.139,-0.519 0.371,-0.647c0.231,-0.128 0.522,-0.191 0.874,-0.191c0.446,-0 0.774,0.087 0.981,0.263c0.208,0.175 0.311,0.527 0.311,1.053c0,0.862 -0.227,1.632 -0.682,2.311c-0.455,0.678 -1.089,1.209 -1.903,1.592c-0.814,0.383 -1.772,0.574 -2.873,0.574Z" style="fill-rule:nonzero;"/><path d="M73.114,72.081c-0.208,0 -0.395,-0.071 -0.563,-0.215c-0.167,-0.144 -0.307,-0.319 -0.419,-0.527l-3.519,-6.847l-2.394,0l0,6.68c0,0.271 -0.132,0.478 -0.395,0.622c-0.263,0.144 -0.555,0.216 -0.874,0.216c-0.319,-0 -0.61,-0.072 -0.874,-0.216c-0.263,-0.144 -0.395,-0.351 -0.395,-0.622l0,-15.849c0,-0.223 0.076,-0.415 0.228,-0.575c0.151,-0.159 0.363,-0.239 0.634,-0.239l4.549,0c1.005,0 1.923,0.148 2.753,0.443c0.83,0.295 1.492,0.798 1.987,1.508c0.495,0.71 0.742,1.688 0.742,2.933c0,0.958 -0.147,1.756 -0.443,2.394c-0.295,0.638 -0.694,1.145 -1.197,1.52c-0.502,0.375 -1.073,0.651 -1.711,0.826l3.351,6.296c0.032,0.048 0.056,0.108 0.072,0.18c0.016,0.072 0.024,0.132 0.024,0.18c0,0.207 -0.08,0.411 -0.239,0.61c-0.16,0.2 -0.355,0.363 -0.587,0.491c-0.231,0.127 -0.475,0.191 -0.73,0.191Zm-6.895,-9.624l2.873,0c0.894,0 1.608,-0.215 2.143,-0.646c0.534,-0.431 0.802,-1.165 0.802,-2.203c-0,-1.037 -0.268,-1.771 -0.802,-2.202c-0.535,-0.431 -1.249,-0.647 -2.143,-0.647l-2.873,0l0,5.698Z" style="fill-rule:nonzero;"/><path d="M84.51,72.153c-1.022,0 -1.936,-0.175 -2.742,-0.527c-0.806,-0.351 -1.444,-0.917 -1.915,-1.699c-0.471,-0.782 -0.706,-1.82 -0.706,-3.113l-0,-6.966c-0,-1.293 0.235,-2.33 0.706,-3.112c0.471,-0.783 1.109,-1.349 1.915,-1.7c0.806,-0.351 1.72,-0.527 2.742,-0.527c1.005,0 1.915,0.176 2.729,0.527c0.814,0.351 1.46,0.917 1.939,1.7c0.479,0.782 0.718,1.819 0.718,3.112l0,6.966c0,1.293 -0.239,2.331 -0.718,3.113c-0.479,0.782 -1.125,1.348 -1.939,1.699c-0.814,0.352 -1.724,0.527 -2.729,0.527Zm-0,-2.25c0.877,-0 1.572,-0.252 2.082,-0.754c0.511,-0.503 0.766,-1.281 0.766,-2.335l0,-6.966c0,-1.054 -0.251,-1.832 -0.754,-2.334c-0.502,-0.503 -1.201,-0.755 -2.094,-0.755c-0.894,0 -1.592,0.252 -2.095,0.755c-0.503,0.502 -0.754,1.28 -0.754,2.334l-0,6.966c-0,1.054 0.251,1.832 0.754,2.335c0.503,0.502 1.201,0.754 2.095,0.754Z" style="fill-rule:nonzero;"/></g><g><g opacity="0.2"><path d="M72.479,28.824c-0.801,-2.793 -3.093,-4.686 -5.786,-5.668c-0.237,0.828 -0.553,1.64 -0.951,2.406c-1.708,3.284 -6.015,8.214 -9.814,11.455c-0.566,0.483 -2.601,2.092 -3.176,2.541c-8.322,6.502 -15.334,4.98 -18.947,0.355c1.618,5.642 7.549,9.68 17.701,6.769c0.701,-0.201 3.19,-0.932 3.896,-1.167c4.736,-1.582 10.577,-4.539 13.39,-6.944c2.838,-2.426 4.728,-6.114 3.687,-9.747" style="fill:#3e4c9f;fill-rule:nonzero;"/></g><g opacity="0.4"><path d="M65.508,15.144c-1.789,-2.289 -4.622,-3.186 -7.487,-3.088c0.09,0.857 0.102,1.728 0.019,2.587c-0.201,2.097 -0.992,5.003 -2.054,7.934c-0.804,2.221 -1.759,4.455 -2.754,6.363c-0.344,0.66 -1.628,2.915 -1.992,3.546c-5.281,9.147 -12.352,10.361 -17.435,7.427c3.613,4.625 10.625,6.147 18.947,-0.355c0.575,-0.449 2.61,-2.058 3.176,-2.541c3.799,-3.241 8.106,-8.171 9.814,-11.455c0.398,-0.766 0.714,-1.578 0.951,-2.406c0.789,-2.756 0.604,-5.723 -1.185,-8.012" style="fill:#3e4c9f;fill-rule:nonzero;"/></g><g opacity="0.6"><path d="M58.021,12.056c-0.301,-2.851 -1.584,-5.532 -4.1,-6.985c-2.516,-1.453 -5.482,-1.228 -8.101,-0.063c0.406,0.762 0.743,1.568 0.989,2.397c0.6,2.021 0.963,5.012 1.076,8.13c0.086,2.358 0.029,4.787 -0.178,6.927c-0.031,0.321 -0.114,0.987 -0.206,1.696c-0.12,0.927 -0.255,1.929 -0.313,2.338c-1.47,10.458 -7.571,14.234 -13.383,13.417c5.083,2.934 12.154,1.72 17.435,-7.427c0.365,-0.631 1.648,-2.886 1.992,-3.546c0.995,-1.908 1.95,-4.142 2.754,-6.363c1.062,-2.931 1.853,-5.837 2.054,-7.934c0.082,-0.859 0.072,-1.73 -0.019,-2.587" style="fill:#3e4c9f;fill-rule:nonzero;"/></g><g opacity="0.8"><path d="M47.885,15.535c-0.113,-3.118 -0.476,-6.109 -1.076,-8.13c-0.246,-0.829 -0.583,-1.635 -0.989,-2.397c-1.348,-2.528 -3.54,-4.531 -6.415,-4.935c-2.876,-0.404 -5.54,0.913 -7.532,2.972c0.662,0.554 1.273,1.179 1.812,1.856c1.311,1.647 2.767,4.281 4.039,7.127c0.964,2.155 1.823,4.433 2.433,6.497c0.092,0.309 0.265,0.958 0.445,1.649c0.236,0.905 0.486,1.884 0.586,2.286c0.312,1.254 0.52,2.439 0.639,3.559c0.853,8.037 -3.024,12.648 -8.022,13.894c5.812,0.817 11.913,-2.959 13.383,-13.417c0.058,-0.409 0.193,-1.411 0.313,-2.338c0.092,-0.709 0.175,-1.375 0.206,-1.696c0.207,-2.14 0.264,-4.569 0.178,-6.927" style="fill:#3e4c9f;fill-rule:nonzero;"/></g><g opacity="0.8"><path d="M24.639,23.327c0.101,-0.722 0.478,-3.289 0.613,-4.021c0.907,-4.909 3.023,-11.105 5.012,-14.225c0.466,-0.73 1.008,-1.415 1.609,-2.036c-2.196,-1.839 -4.983,-2.871 -7.801,-2.169c-3.667,0.915 -5.916,4.396 -6.598,8.068c-0.676,3.638 -0.317,10.175 0.681,15.067c0.149,0.729 0.762,3.25 0.938,3.957c2.555,10.248 9.018,13.365 14.712,11.945c-5.811,-0.817 -10.636,-6.128 -9.166,-16.586" style="fill:#3e4c9f;fill-rule:nonzero;"/></g><path d="M41.827,26.019c-0.119,-1.12 -0.327,-2.305 -0.639,-3.559c-0.1,-0.401 -0.35,-1.381 -0.586,-2.286c-0.181,-0.691 -0.353,-1.34 -0.445,-1.649c-0.61,-2.064 -1.469,-4.341 -2.433,-6.498c-1.272,-2.845 -2.728,-5.479 -4.039,-7.126c-0.539,-0.677 -1.15,-1.302 -1.812,-1.856c-0.601,0.621 -1.143,1.306 -1.609,2.036c-1.989,3.121 -4.105,9.316 -5.012,14.225c-0.135,0.732 -0.511,3.299 -0.613,4.021c-1.47,10.458 3.355,15.769 9.166,16.586c4.998,-1.246 8.874,-5.857 8.022,-13.894" style="fill:#3e4c9f;fill-rule:nonzero;"/></g></svg>