<?xml version="1.0" encoding="UTF-8" standalone="no"?><!DOCTYPE svg PUBLIC "-//W3C//DTD SVG 1.1//EN" "http://www.w3.org/Graphics/SVG/1.1/DTD/svg11.dtd"><svg width="100%" height="100%" viewBox="0 0 179 154" version="1.1" xmlns="http://www.w3.org/2000/svg" xmlns:xlink="http://www.w3.org/1999/xlink" xml:space="preserve" xmlns:serif="http://www.serif.com/" style="fill-rule:evenodd;clip-rule:evenodd;stroke-linejoin:round;stroke-miterlimit:2;"><g><g opacity="0.2"><path d="M177.875,92.627c-2.574,-8.976 -9.94,-15.059 -18.594,-18.215c-0.761,2.661 -1.777,5.271 -3.056,7.732c-5.489,10.554 -19.33,26.396 -31.538,36.811c-1.819,1.553 -8.358,6.723 -10.206,8.166c-26.743,20.895 -49.277,16.004 -60.887,1.141c5.199,18.131 24.259,31.107 56.883,21.752c2.253,-0.645 10.251,-2.995 12.52,-3.75c15.219,-5.084 33.99,-14.586 43.029,-22.315c9.12,-7.796 15.194,-19.647 11.849,-31.322" style="fill:#3e4c9f;fill-rule:nonzero;"/></g><g opacity="0.4"><path d="M155.473,48.665c-5.749,-7.355 -14.853,-10.238 -24.06,-9.923c0.289,2.754 0.328,5.553 0.061,8.313c-0.646,6.739 -3.188,16.078 -6.6,25.497c-2.584,7.137 -5.653,14.316 -8.851,20.448c-1.105,2.121 -5.231,9.367 -6.401,11.395c-16.971,29.394 -39.694,33.295 -56.028,23.867c11.61,14.863 34.144,19.754 60.887,-1.141c1.848,-1.443 8.387,-6.613 10.206,-8.166c12.208,-10.415 26.049,-26.257 31.538,-36.811c1.279,-2.461 2.295,-5.071 3.056,-7.732c2.536,-8.856 1.941,-18.391 -3.808,-25.747" style="fill:#3e4c9f;fill-rule:nonzero;"/></g><g opacity="0.6"><path d="M131.413,38.742c-0.967,-9.162 -5.09,-17.777 -13.175,-22.447c-8.086,-4.669 -17.617,-3.946 -26.033,-0.202c1.304,2.449 2.387,5.039 3.178,7.703c1.928,6.494 3.094,16.106 3.458,26.126c0.276,7.577 0.093,15.383 -0.572,22.26c-0.1,1.032 -0.367,3.172 -0.662,5.45c-0.386,2.979 -0.82,6.199 -1.006,7.514c-4.724,33.607 -24.33,45.741 -43.007,43.116c16.334,9.428 39.057,5.527 56.028,-23.867c1.173,-2.028 5.296,-9.274 6.401,-11.395c3.198,-6.132 6.267,-13.311 8.851,-20.448c3.412,-9.419 5.954,-18.758 6.6,-25.497c0.264,-2.76 0.232,-5.559 -0.061,-8.313" style="fill:#3e4c9f;fill-rule:nonzero;"/></g><g opacity="0.8"><path d="M98.841,49.922c-0.364,-10.02 -1.53,-19.632 -3.458,-26.126c-0.791,-2.664 -1.874,-5.254 -3.178,-7.703c-4.332,-8.124 -11.376,-14.561 -20.615,-15.859c-9.243,-1.298 -17.803,2.934 -24.205,9.551c2.128,1.78 4.091,3.788 5.823,5.964c4.213,5.293 8.892,13.757 12.98,22.903c3.098,6.925 5.858,14.246 7.818,20.878c0.296,0.993 0.852,3.079 1.43,5.3c0.759,2.908 1.562,6.054 1.883,7.346c1.003,4.03 1.671,7.838 2.054,11.437c2.741,25.827 -9.718,40.645 -25.779,44.649c18.677,2.625 38.283,-9.509 43.007,-43.116c0.186,-1.315 0.62,-4.535 1.006,-7.514c0.295,-2.278 0.562,-4.418 0.662,-5.45c0.665,-6.877 0.848,-14.683 0.572,-22.26" style="fill:#3e4c9f;fill-rule:nonzero;"/></g><g opacity="0.8"><path d="M24.138,74.962c0.325,-2.32 1.536,-10.569 1.97,-12.922c2.915,-15.775 9.715,-35.686 16.107,-45.713c1.497,-2.345 3.239,-4.547 5.17,-6.542c-7.057,-5.91 -16.013,-9.226 -25.069,-6.971c-11.784,2.941 -19.011,14.127 -21.203,25.927c-2.172,11.691 -1.018,32.698 2.189,48.419c0.478,2.343 2.448,10.444 3.014,12.716c8.211,32.933 28.98,42.949 47.278,38.386c-18.674,-2.626 -34.18,-19.693 -29.456,-53.3" style="fill:#3e4c9f;fill-rule:nonzero;"/></g><path d="M79.373,83.613c-0.383,-3.599 -1.051,-7.407 -2.054,-11.437c-0.321,-1.289 -1.124,-4.438 -1.883,-7.346c-0.581,-2.221 -1.134,-4.307 -1.43,-5.3c-1.96,-6.632 -4.72,-13.95 -7.818,-20.881c-4.088,-9.143 -8.767,-17.607 -12.98,-22.9c-1.732,-2.176 -3.695,-4.184 -5.823,-5.964c-1.931,1.995 -3.673,4.197 -5.17,6.542c-6.392,10.03 -13.192,29.938 -16.107,45.713c-0.434,2.353 -1.642,10.602 -1.97,12.922c-4.724,33.607 10.782,50.674 29.456,53.3c16.061,-4.004 28.517,-18.822 25.779,-44.649" style="fill:#3e4c9f;fill-rule:nonzero;"/></g></svg>