<?xml version="1.0" encoding="UTF-8" standalone="no"?><!DOCTYPE svg PUBLIC "-//W3C//DTD SVG 1.1//EN" "http://www.w3.org/Graphics/SVG/1.1/DTD/svg11.dtd"><svg width="100%" height="100%" viewBox="0 0 263 263" version="1.1" xmlns="http://www.w3.org/2000/svg" xmlns:xlink="http://www.w3.org/1999/xlink" xml:space="preserve" xmlns:serif="http://www.serif.com/" style="fill-rule:evenodd;clip-rule:evenodd;stroke-linejoin:round;stroke-miterlimit:2;"><circle cx="131.154" cy="131.154" r="131.154" style="fill:#ebebeb;"/><g><g opacity="0.2"><path d="M219.626,147.214c-2.574,-8.976 -9.939,-15.059 -18.593,-18.215c-0.762,2.661 -1.777,5.271 -3.056,7.732c-5.489,10.554 -19.33,26.396 -31.538,36.811c-1.819,1.553 -8.359,6.723 -10.206,8.166c-26.744,20.895 -49.277,16.004 -60.888,1.141c5.2,18.131 24.259,31.107 56.883,21.752c2.253,-0.645 10.252,-2.995 12.52,-3.75c15.22,-5.084 33.99,-14.586 43.03,-22.315c9.12,-7.796 15.194,-19.647 11.848,-31.322" style="fill:#3e4c9f;fill-rule:nonzero;"/></g><g opacity="0.4"><path d="M197.225,103.252c-5.749,-7.355 -14.853,-10.238 -24.06,-9.923c0.289,2.754 0.328,5.553 0.061,8.313c-0.646,6.739 -3.188,16.078 -6.601,25.497c-2.584,7.137 -5.652,14.316 -8.85,20.448c-1.105,2.121 -5.232,9.367 -6.401,11.395c-16.971,29.394 -39.694,33.296 -56.029,23.867c11.611,14.863 34.144,19.754 60.888,-1.141c1.847,-1.443 8.387,-6.613 10.206,-8.166c12.208,-10.415 26.049,-26.257 31.538,-36.811c1.279,-2.461 2.294,-5.071 3.056,-7.732c2.535,-8.856 1.941,-18.391 -3.808,-25.747" style="fill:#3e4c9f;fill-rule:nonzero;"/></g><g opacity="0.6"><path d="M173.165,93.329c-0.968,-9.162 -5.091,-17.777 -13.176,-22.447c-8.085,-4.669 -17.617,-3.946 -26.033,-0.202c1.305,2.449 2.388,5.039 3.178,7.703c1.928,6.494 3.095,16.106 3.458,26.126c0.277,7.577 0.093,15.383 -0.572,22.26c-0.099,1.032 -0.366,3.172 -0.662,5.45c-0.385,2.979 -0.819,6.199 -1.006,7.514c-4.724,33.607 -24.33,45.741 -43.007,43.116c16.335,9.429 39.058,5.527 56.029,-23.867c1.173,-2.028 5.296,-9.274 6.401,-11.395c3.198,-6.132 6.266,-13.311 8.85,-20.448c3.413,-9.419 5.955,-18.758 6.601,-25.497c0.263,-2.76 0.231,-5.559 -0.061,-8.313" style="fill:#3e4c9f;fill-rule:nonzero;"/></g><g opacity="0.8"><path d="M140.592,104.509c-0.363,-10.02 -1.53,-19.632 -3.458,-26.126c-0.79,-2.664 -1.873,-5.254 -3.178,-7.703c-4.332,-8.124 -11.376,-14.561 -20.615,-15.859c-9.242,-1.298 -17.803,2.934 -24.204,9.551c2.127,1.78 4.091,3.788 5.823,5.964c4.213,5.293 8.892,13.757 12.979,22.903c3.098,6.925 5.859,14.246 7.819,20.878c0.295,0.993 0.851,3.079 1.43,5.3c0.758,2.908 1.562,6.054 1.883,7.346c1.003,4.03 1.671,7.838 2.053,11.437c2.742,25.827 -9.717,40.645 -25.779,44.649c18.677,2.625 38.283,-9.509 43.007,-43.116c0.187,-1.315 0.621,-4.535 1.006,-7.514c0.296,-2.278 0.563,-4.418 0.662,-5.45c0.665,-6.877 0.849,-14.683 0.572,-22.26" style="fill:#3e4c9f;fill-rule:nonzero;"/></g><g opacity="0.8"><path d="M65.89,129.549c0.324,-2.32 1.536,-10.569 1.97,-12.922c2.914,-15.775 9.714,-35.686 16.106,-45.713c1.498,-2.345 3.239,-4.547 5.171,-6.542c-7.057,-5.91 -16.013,-9.226 -25.069,-6.971c-11.784,2.941 -19.012,14.127 -21.203,25.927c-2.173,11.691 -1.019,32.698 2.188,48.419c0.479,2.343 2.449,10.444 3.015,12.716c8.21,32.933 28.979,42.949 47.277,38.386c-18.674,-2.626 -34.179,-19.693 -29.455,-53.3" style="fill:#3e4c9f;fill-rule:nonzero;"/></g><path d="M121.124,138.2c-0.382,-3.599 -1.05,-7.407 -2.053,-11.437c-0.321,-1.289 -1.125,-4.438 -1.883,-7.346c-0.582,-2.221 -1.135,-4.307 -1.43,-5.3c-1.96,-6.632 -4.721,-13.95 -7.819,-20.881c-4.087,-9.143 -8.766,-17.607 -12.979,-22.9c-1.732,-2.176 -3.696,-4.184 -5.823,-5.964c-1.932,1.995 -3.673,4.197 -5.171,6.542c-6.392,10.03 -13.192,29.938 -16.106,45.713c-0.434,2.353 -1.642,10.602 -1.97,12.922c-4.724,33.607 10.781,50.674 29.455,53.3c16.062,-4.004 28.517,-18.822 25.779,-44.649" style="fill:#3e4c9f;fill-rule:nonzero;"/></g></svg>